<?xml version="1.0" standalone="no"?>
<!DOCTYPE svg PUBLIC "-//W3C//DTD SVG 20010904//EN"
 "http://www.w3.org/TR/2001/REC-SVG-20010904/DTD/svg10.dtd">
<svg version="1.0" xmlns="http://www.w3.org/2000/svg"
 width="293.000000pt" height="293.000000pt" viewBox="0 0 293.000000 293.000000"
 preserveAspectRatio="xMidYMid meet">
<metadata>
Created by potrace 1.11, written by Peter Selinger 2001-2013
</metadata>
<g transform="translate(0.000000,293.000000) scale(0.100000,-0.100000)"
fill="#000000" stroke="none">
<path d="M1330 2893 c-177 -30 -293 -65 -428 -129 -207 -100 -378 -227 -524
-391 -20 -23 -39 -39 -42 -37 -3 2 -4 1 -1 -2 2 -4 -18 -38 -44 -78 -65 -96
-114 -195 -146 -291 -15 -44 -30 -87 -33 -95 -3 -8 -6 -19 -6 -25 -1 -5 -6
-36 -10 -67 -5 -32 -11 -58 -15 -58 -7 0 -9 -51 -10 -215 0 -137 5 -204 26
-320 3 -16 6 -37 8 -45 1 -8 12 -48 24 -88 12 -40 19 -78 15 -85 -4 -6 -4 -9
1 -5 4 4 23 -29 41 -73 18 -45 38 -87 44 -94 7 -8 8 -20 4 -26 -4 -7 -3 -9 3
-6 13 8 36 -41 27 -55 -4 -6 -2 -8 3 -5 11 7 46 -39 46 -60 0 -7 4 -10 9 -7 4
3 11 -3 15 -13 4 -10 17 -26 30 -36 13 -10 23 -22 23 -27 0 -5 18 -26 40 -48
22 -21 37 -42 32 -47 -4 -5 -2 -5 4 -2 14 8 47 -26 37 -38 -5 -4 -3 -5 4 -1 7
4 21 -1 31 -11 29 -28 95 -79 120 -92 12 -7 20 -17 16 -23 -4 -6 -3 -8 3 -5 6
4 41 -11 77 -33 36 -22 70 -40 76 -40 6 0 8 -5 4 -12 -4 -6 -3 -8 4 -4 9 5
116 -38 132 -54 3 -3 11 -5 18 -6 28 -2 33 -4 28 -13 -4 -5 3 -7 14 -4 12 3
20 0 20 -6 0 -7 4 -10 8 -7 4 2 39 -4 77 -15 100 -28 279 -52 380 -51 35 0
270 36 295 45 8 2 51 17 95 32 44 16 97 37 118 47 22 11 45 17 53 14 8 -3 13
-1 11 5 -1 5 25 24 58 42 33 17 66 37 73 44 7 7 17 13 21 13 4 0 21 11 37 25
28 24 39 29 57 26 5 -1 6 3 3 8 -6 9 43 47 57 43 4 -1 6 1 5 5 -1 5 28 37 66
73 195 185 346 479 395 765 19 116 22 141 22 240 0 312 -110 634 -297 866
-201 251 -488 438 -799 520 -106 27 -139 31 -275 34 -85 1 -166 1 -180 -2z
m202 -285 c6 -11 8 -10 8 0 0 7 5 10 11 6 6 -3 33 -8 59 -9 27 -2 64 -6 82
-10 61 -12 207 -58 204 -64 -2 -3 8 -7 22 -8 15 0 28 -6 30 -12 2 -6 10 -11
18 -11 16 0 86 -38 95 -52 3 -5 10 -10 15 -11 5 -1 8 -5 7 -8 -1 -4 5 -6 15
-5 9 0 16 -5 14 -12 -1 -8 2 -11 7 -8 5 4 16 -1 24 -9 9 -8 20 -15 25 -15 15
0 202 -190 202 -205 0 -7 4 -15 9 -17 24 -8 146 -226 156 -277 2 -9 4 -17 5
-18 2 -2 3 -6 5 -10 1 -5 7 -21 14 -37 6 -16 10 -35 7 -42 -3 -7 -1 -14 4 -16
20 -7 42 -195 37 -315 -7 -141 -6 -130 -24 -223 -8 -41 -19 -81 -25 -87 -6 -7
-8 -13 -5 -13 9 0 -43 -134 -56 -142 -6 -4 -8 -8 -4 -8 11 0 -55 -120 -65
-120 -5 0 -8 -5 -8 -10 0 -28 -174 -230 -197 -230 -6 0 -13 -6 -16 -14 -9 -22
-151 -114 -242 -157 -277 -130 -609 -145 -895 -40 -369 135 -632 452 -717 861
-21 101 -23 332 -4 427 24 123 86 285 144 378 66 105 202 259 220 248 6 -3 7
-1 4 4 -12 19 204 169 225 157 7 -5 8 -2 3 6 -6 10 -4 12 9 7 9 -4 15 -3 12 2
-7 10 121 64 134 56 4 -3 10 -1 12 5 5 16 158 52 230 53 38 1 68 5 68 8 0 13
113 10 122 -3z"/>
<path d="M1158 1995 c-35 -20 -41 -41 -42 -160 -1 -55 -5 -106 -10 -114 -6 -9
-5 -12 1 -8 13 8 12 -96 -2 -105 -6 -5 -7 -8 0 -8 6 0 10 -99 11 -277 1 -338
4 -365 43 -380 25 -9 38 -6 102 26 41 20 86 44 100 54 14 9 29 14 32 10 4 -3
7 -2 7 3 0 5 30 25 67 44 37 19 73 41 81 48 12 11 21 14 38 11 4 0 10 3 13 8
3 6 38 27 76 48 39 21 100 55 137 75 36 21 69 36 72 32 3 -3 6 -1 6 4 0 6 30
26 67 45 79 40 133 88 133 118 0 40 -57 81 -340 239 -157 87 -307 172 -335
187 -107 60 -191 103 -210 109 -11 3 -32 -1 -47 -9z"/>
</g>
</svg>
